<svg width="15" height="11" viewBox="0 0 10 6" fill="none" xmlns="http://www.w3.org/2000/svg">
<path d="M4.6098 0.222099L0.159755 4.67223C0.0567475 4.77515 -4.4802e-08 4.91255 -3.83982e-08 5.05905C-3.19943e-08 5.20555 0.0567475 5.34295 0.159755 5.44588L0.487394 5.7736C0.700889 5.98685 1.04788 5.98685 1.26105 5.7736L4.99793 2.03672L8.73895 5.77774C8.84196 5.88067 8.97928 5.9375 9.1257 5.9375C9.27228 5.9375 9.4096 5.88067 9.51269 5.77774L9.84024 5.45002C9.94325 5.34702 10 5.2097 10 5.0632C10 4.91669 9.94325 4.7793 9.84024 4.67637L5.38613 0.222099C5.2828 0.118929 5.14484 0.0622628 4.99817 0.062588C4.85094 0.0622628 4.71305 0.118929 4.6098 0.222099Z" fill="black"/>
</svg>
